<svg width="32" height="38" viewBox="0 0 32 38" fill="none" xmlns="http://www.w3.org/2000/svg">
<path d="M21.3333 0H10.6667V3.55556H21.3333V0ZM14.2222 23.1111H17.7778V12.4444H14.2222V23.1111ZM28.4978 11.36L31.0222 8.83556C30.2578 7.92889 29.4222 7.07556 28.5156 6.32889L25.9911 8.85333C23.2356 6.64889 19.7689 5.33333 16 5.33333C7.16444 5.33333 0 12.4978 0 21.3333C0 30.1689 7.14667 37.3333 16 37.3333C24.8533 37.3333 32 30.1689 32 21.3333C32 17.5644 30.6844 14.0978 28.4978 11.36ZM16 33.7778C9.12 33.7778 3.55556 28.2133 3.55556 21.3333C3.55556 14.4533 9.12 8.88889 16 8.88889C22.88 8.88889 28.4444 14.4533 28.4444 21.3333C28.4444 28.2133 22.88 33.7778 16 33.7778Z" fill="#FBA919"/>
</svg>
