<svg width="32" height="32" viewBox="0 0 32 32" fill="none" xmlns="http://www.w3.org/2000/svg">
<path d="M30.2222 22.2222C28 22.2222 25.8667 21.8667 23.8756 21.2089C23.2533 21.0133 22.56 21.1556 22.0622 21.6356L18.1511 25.5467C13.12 22.9867 8.99556 18.88 6.43556 13.8311L10.3467 9.90222C10.8444 9.44 10.9867 8.74667 10.7911 8.12444C10.1333 6.13333 9.77778 4 9.77778 1.77778C9.77778 0.8 8.97778 0 8 0H1.77778C0.8 0 0 0.8 0 1.77778C0 18.4711 13.5289 32 30.2222 32C31.2 32 32 31.2 32 30.2222V24C32 23.0222 31.2 22.2222 30.2222 22.2222ZM28.4444 16H32C32 7.16444 24.8356 0 16 0V3.55556C22.88 3.55556 28.4444 9.12 28.4444 16ZM21.3333 16H24.8889C24.8889 11.0933 20.9067 7.11111 16 7.11111V10.6667C18.9511 10.6667 21.3333 13.0489 21.3333 16Z" fill="#FBA919"/>
</svg>
