<svg width="377" height="202" viewBox="0 0 377 202" fill="none" xmlns="http://www.w3.org/2000/svg">
<path d="M0 160.5H87.5L130.5 171C130.5 171 128.958 98.8215 130.5 92.0001C132.042 85.1787 138 80.5001 141.5 80.5001C145 80.5001 249.5 80.5001 249.5 80.5001L248 77.0001H233V48.5001C233 48.5001 228.123 31.1367 219.5 25.0001C213.463 20.7039 208.91 19.0001 201.5 19.0001C194.09 19.0001 189.428 20.5547 183.5 25.0001C175.256 31.1823 173.869 38.4715 171.5 48.5001C169.211 58.1918 171.5 74.0001 171.5 74.0001H151.5C151.5 74.0001 151.5 53.0001 151.5 40.5001C162.015 11.3243 172.963 2.89577 201.5 2C233 2.00003 252.46 29.5924 252 40.5001L253 81.0001H257.5C265.055 82.3477 269 86.0001 271 92.5001L270 171C265.823 183.454 262.006 189.406 248 195H211L210 166H217L211 141C211 141 216.693 137.227 218.5 133.5C220.467 129.444 220.623 126.366 219.5 122C218.312 117.384 216.612 114.411 212.5 112C209.722 110.371 207.72 110 204.5 110C201.28 110 199.249 110.322 196.5 112C192.524 114.427 191.104 117.475 190 122C188.932 126.38 189.083 129.42 191 133.5C192.703 137.126 198 141 198 141L191 164H204.5V195H157.5L137.5 177.5V184L154 200.5H291.5L319 160.5H377" stroke="#FE5C32" stroke-width="3"/>
</svg>
