<svg width="445" height="377" viewBox="0 0 445 377" fill="none" xmlns="http://www.w3.org/2000/svg">
<path d="M2 372.401C2 372.401 8.43592 366.611 13.404 364.387C24.0606 359.617 43.9175 365.929 43.9175 365.929L100.321 374.867C122.64 376.719 132.339 373.84 144.088 360.997C150.448 351.119 149.367 341.278 144.088 320.621C142.042 308.825 137.072 302.255 138.848 290.415C140.937 276.492 146.396 268.509 157.033 259.285C164.721 252.62 170.636 250.874 180.15 247.265C193.238 242.3 195.646 257.045 206.348 261.751C219.172 267.391 226.467 269.955 240.56 272.539C254.966 275.179 270.765 265.142 274.156 259.285C277.546 253.429 282.76 245.838 285.56 236.169C288.651 225.492 288.794 218.902 288.026 207.813C287.101 194.479 274.156 185.313 269.841 184.697C262.154 180.835 254.935 181.574 244.259 180.382C233.582 179.189 227.803 183.135 218.368 187.779C208.347 192.712 201.779 195.76 195.56 205.039C190.284 212.913 187.003 218.748 188.163 228.155C189.007 234.997 190.847 239.153 195.56 244.183C202.822 251.932 210.861 251.693 221.451 252.505C230.397 253.191 235.769 252.634 244.259 249.731C253.675 246.51 259.026 243.992 266.759 237.71C273.913 231.898 278.352 228.151 280.937 219.525C282.257 215.12 283.508 212.446 283.094 207.813C282.248 198.339 276.345 193.252 267.991 188.704C261.127 184.966 256.082 185.315 248.266 185.313C239.437 185.311 234.108 185.968 226.074 189.628C219.478 192.633 215.796 195.007 210.971 200.416C207.37 204.453 204.649 206.826 203.574 212.128C202.559 217.133 202.546 220.855 205.423 225.073C207.869 228.659 210.613 229.696 214.67 231.238C219.529 233.084 222.728 232.633 227.923 232.471C234.412 232.267 238.139 231.555 244.259 229.388C249.892 227.394 253.248 226.148 257.82 222.299C262.149 218.655 264.144 215.913 266.759 210.895C268.764 207.047 267.687 199.92 271.998 200.416C277.12 201.005 280.32 203.19 286.484 196.409C292.649 189.628 305.594 172.985 305.594 172.985C305.594 172.985 334.337 143.801 350.285 123.053C358.033 112.975 370.613 111.016 371.861 102.095C372.589 96.8876 371.262 93.3964 368.162 89.1495C364.815 84.5635 359.748 85.5565 355.833 81.4441C348.877 74.137 348.202 66.875 348.128 56.7867C348.045 45.4822 351.32 38.9021 357.374 29.3554C362.936 20.5867 367.406 16.1137 376.176 10.5542C383.104 6.16192 387.458 3.59698 395.593 2.54051C404.287 1.41147 410.036 1.83087 417.785 5.9309C423.883 9.15726 427.541 11.8337 430.73 17.9514C435.125 26.3837 432.841 33.0288 430.73 42.3005C429.385 48.2073 428.106 51.4813 425.182 56.7867C421.788 62.9443 419.111 66.0471 414.086 70.9647C409.235 75.713 406.264 78.3596 400.217 81.4441C393.633 84.8021 389.421 86.826 382.032 86.6838C375.104 86.5505 370.625 85.5996 365.08 81.4441C358.984 76.8759 356.423 72.2657 354.909 64.8004C353.46 57.6599 355.263 53.2807 357.374 46.3073C360.169 37.076 362.63 31.607 369.395 24.7321C375.534 18.4932 379.809 14.0208 388.504 13.0199C394.977 12.2748 399.667 12.4494 404.84 16.4103C409.463 19.95 411.043 23.6566 412.237 29.3554C413.48 35.2881 412.394 39.0463 410.388 44.7663C408.584 49.909 406.985 52.7723 403.299 56.7867C396.635 64.0447 390.328 67.0128 380.491 67.5743C374.386 67.9228 369.395 67.5743 363.847 64.8004C358.299 62.0264 359.906 52.2011 360.457 50.3142C361.514 44.9293 367.546 43.8416 374.326 50.3142C379.88 55.6156 386.573 58.3796 393.436 54.9374C399.455 51.9184 404.872 45.8052 401.758 39.8348C398.949 34.4512 392.012 33.2767 386.655 36.1362C382.558 38.3234 378.456 42.1319 380.491 46.3073C382.424 50.2757 387.379 49.7998 391.587 48.4649C398.962 46.1248 393.291 36.2391 396.826 29.3554C398.458 26.1773 399.212 24.1566 401.758 21.65C407.437 16.0577 413.763 14.4283 421.484 16.4103C428.35 18.1732 431.203 22.3749 435.353 28.1225C440.881 35.7779 441.953 41.8091 442.442 51.2388C443.076 63.4578 442.346 72.3866 434.12 81.4441C428.68 87.4347 424.043 89.7662 416.244 91.9235C401.758 95.9303 386.099 87.9042 385.422 93.4646C384.655 99.761 391.36 102.819 390.354 111.341C389.179 121.291 378.025 133.841 378.025 133.841L359.224 157.574L342.888 176.991L328.402 193.635C328.402 193.635 323.242 199.751 319.464 203.19C314.496 207.711 311.382 209.953 305.594 213.361C301.651 215.683 298.099 215.133 295.115 218.601C287.285 227.699 284.776 243.732 286.484 246.032C288.193 248.332 296.039 247.265 330.868 210.895C365.696 174.526 365.696 174.526 365.696 174.526C365.696 174.526 385.223 152.051 395.902 136.307C404.626 123.442 416.244 102.095 416.244 102.095" stroke="#FE5C32" stroke-width="3"/>
</svg>
