<svg width="228" height="203" viewBox="0 0 228 203" fill="none" xmlns="http://www.w3.org/2000/svg">
<path d="M0 185.495H78.7565C78.7565 190.221 86.6321 201.247 100.021 201.247C113.409 201.247 121.285 191.552 121.285 179.589C121.285 168.169 114.984 157.537 99.2332 157.537C85.8423 157.537 80.3316 169.35 80.3316 169.35H113.409C113.409 169.35 113.409 145.723 113.409 132.335C113.409 118.946 123.648 113.827 123.648 113.827C123.648 113.827 143.945 99.9096 151.212 86.656C157.901 74.4567 160.451 65.8821 159.482 52.0031C158.581 39.0931 156.402 30.7905 148.062 20.8943C140.194 11.5567 133.012 8.15171 121.285 4.74923C108.584 1.06411 100.132 1.10312 87.4197 4.74923C78.6271 7.27102 73.6677 9.63714 66.5492 15.3814C58.7923 21.6407 54.8676 26.3655 50.7979 35.4643C46.4728 45.1341 46.4663 62.2415 46.4663 62.2415H76.7876C76.7876 62.2415 76.9849 48.7889 81.9067 42.5523C87.8867 34.975 95.1573 31.9924 104.746 33.1016C113.475 34.1112 119.686 37.4656 123.648 45.3088C127.184 52.3092 128.353 59.1174 123.648 65.3917C113.902 78.3865 112.228 79.9616 104.352 88.6248C94.7676 99.168 83.8756 104.697 83.8756 118.946C83.8756 129.578 83.8756 146.905 83.8756 146.905C83.8756 146.905 93.2529 146.45 99.2332 146.905C112.51 147.914 121.705 147.124 132.311 155.174C143.114 163.374 149.244 178.013 149.244 185.495H228" stroke="#FE5C32" stroke-width="2.36269"/>
</svg>
