<svg width="79" height="46" viewBox="0 0 79 46" fill="none" xmlns="http://www.w3.org/2000/svg">
<path d="M41.9023 41.2344C40.1836 41.2344 38.7852 40.6719 37.707 39.5469C36.6289 38.4141 36.0898 36.9023 36.0898 35.0117V34.6133C36.0898 33.3555 36.3281 32.2344 36.8047 31.25C37.2891 30.2578 37.9609 29.4844 38.8203 28.9297C39.6875 28.3672 40.625 28.0859 41.6328 28.0859C43.2812 28.0859 44.5625 28.6289 45.4766 29.7148C46.3906 30.8008 46.8477 32.3555 46.8477 34.3789V35.2812H38.2578C38.2891 36.5312 38.6523 37.543 39.3477 38.3164C40.0508 39.082 40.9414 39.4648 42.0195 39.4648C42.7852 39.4648 43.4336 39.3086 43.9648 38.9961C44.4961 38.6836 44.9609 38.2695 45.3594 37.7539L46.6836 38.7852C45.6211 40.418 44.0273 41.2344 41.9023 41.2344ZM41.6328 29.8672C40.7578 29.8672 40.0234 30.1875 39.4297 30.8281C38.8359 31.4609 38.4688 32.3516 38.3281 33.5H44.6797V33.3359C44.6172 32.2344 44.3203 31.3828 43.7891 30.7812C43.2578 30.1719 42.5391 29.8672 41.6328 29.8672ZM48.8516 34.5547C48.8516 32.5781 49.3086 31.0078 50.2227 29.8438C51.1367 28.6719 52.3477 28.0859 53.8555 28.0859C55.4023 28.0859 56.6094 28.6328 57.4766 29.7266L57.582 28.3203H59.5625V40.6953C59.5625 42.3359 59.0742 43.6289 58.0977 44.5742C57.1289 45.5195 55.8242 45.9922 54.1836 45.9922C53.2695 45.9922 52.375 45.7969 51.5 45.4062C50.625 45.0156 49.957 44.4805 49.4961 43.8008L50.6211 42.5C51.5508 43.6484 52.6875 44.2227 54.0312 44.2227C55.0859 44.2227 55.9062 43.9258 56.4922 43.332C57.0859 42.7383 57.3828 41.9023 57.3828 40.8242V39.7344C56.5156 40.7344 55.332 41.2344 53.832 41.2344C52.3477 41.2344 51.1445 40.6367 50.2227 39.4414C49.3086 38.2461 48.8516 36.6172 48.8516 34.5547ZM51.0312 34.8008C51.0312 36.2305 51.3242 37.3555 51.9102 38.1758C52.4961 38.9883 53.3164 39.3945 54.3711 39.3945C55.7383 39.3945 56.7422 38.7734 57.3828 37.5312V31.7422C56.7188 30.5312 55.7227 29.9258 54.3945 29.9258C53.3398 29.9258 52.5156 30.3359 51.9219 31.1562C51.3281 31.9766 51.0312 33.1914 51.0312 34.8008ZM65.1992 41H63.0312V28.3203H65.1992V41ZM62.8555 24.957C62.8555 24.6055 62.9609 24.3086 63.1719 24.0664C63.3906 23.8242 63.7109 23.7031 64.1328 23.7031C64.5547 23.7031 64.875 23.8242 65.0938 24.0664C65.3125 24.3086 65.4219 24.6055 65.4219 24.957C65.4219 25.3086 65.3125 25.6016 65.0938 25.8359C64.875 26.0703 64.5547 26.1875 64.1328 26.1875C63.7109 26.1875 63.3906 26.0703 63.1719 25.8359C62.9609 25.6016 62.8555 25.3086 62.8555 24.957ZM76.0625 37.6367C76.0625 37.0508 75.8398 36.5977 75.3945 36.2773C74.957 35.9492 74.1875 35.668 73.0859 35.4336C71.9922 35.1992 71.1211 34.918 70.4727 34.5898C69.832 34.2617 69.3555 33.8711 69.043 33.418C68.7383 32.9648 68.5859 32.4258 68.5859 31.8008C68.5859 30.7617 69.0234 29.8828 69.8984 29.1641C70.7812 28.4453 71.9062 28.0859 73.2734 28.0859C74.7109 28.0859 75.875 28.457 76.7656 29.1992C77.6641 29.9414 78.1133 30.8906 78.1133 32.0469H75.9336C75.9336 31.4531 75.6797 30.9414 75.1719 30.5117C74.6719 30.082 74.0391 29.8672 73.2734 29.8672C72.4844 29.8672 71.8672 30.0391 71.4219 30.3828C70.9766 30.7266 70.7539 31.1758 70.7539 31.7305C70.7539 32.2539 70.9609 32.6484 71.375 32.9141C71.7891 33.1797 72.5352 33.4336 73.6133 33.6758C74.6992 33.918 75.5781 34.207 76.25 34.543C76.9219 34.8789 77.418 35.2852 77.7383 35.7617C78.0664 36.2305 78.2305 36.8047 78.2305 37.4844C78.2305 38.6172 77.7773 39.5273 76.8711 40.2148C75.9648 40.8945 74.7891 41.2344 73.3438 41.2344C72.3281 41.2344 71.4297 41.0547 70.6484 40.6953C69.8672 40.3359 69.2539 39.8359 68.8086 39.1953C68.3711 38.5469 68.1523 37.8477 68.1523 37.0977H70.3203C70.3594 37.8242 70.6484 38.4023 71.1875 38.832C71.7344 39.2539 72.4531 39.4648 73.3438 39.4648C74.1641 39.4648 74.8203 39.3008 75.3125 38.9727C75.8125 38.6367 76.0625 38.1914 76.0625 37.6367Z" fill="#10284B"/>
<path d="M29.347 40.9595L13.9515 27.4583L7.63182 22.0526C6.20761 26.5745 2.54745 34.4434 1.07034 38.2379C0.823521 38.8719 1.26368 40.3304 1.80865 40.6874C2.64602 41.2359 14.1232 40.8864 20.9755 40.9302L29.347 40.9595Z" fill="#D0D6DE" stroke="#ACB0B1" stroke-width="0.147703"/>
<path fill-rule="evenodd" clip-rule="evenodd" d="M14.402 2.3177C11.3498 9.79369 9.48275 14.7697 6.0748 21.966C5.36089 23.4735 5.739 26.0641 7.03542 26.9672C14.4325 32.1201 19.4323 35.4391 26.2522 40.1853C28.1628 41.5149 33.3826 41.1753 32.9777 39.4713C31.8794 34.8494 22.8572 12.0292 19.5267 2.3177C18.9164 0.538046 15.1099 0.583635 14.402 2.3177ZM15.5177 12.9356C15.8206 12.1522 17.5356 12.1402 17.8122 12.9356C20.1603 19.6892 21.8035 24.5827 23.8327 29.5653C24.2497 30.5891 21.7141 30.4088 20.822 29.8851C17.5415 27.9592 15.2962 26.2168 12.2213 23.9686C11.6491 23.5503 11.4859 22.4133 11.7907 21.7301C13.0306 18.9511 13.9678 16.9441 15.5177 12.9356Z" fill="#0F2544" stroke="black" stroke-opacity="0.25" stroke-width="0.135144" stroke-linecap="round" stroke-linejoin="round"/>
</svg>
